<svg xmlns:xlink="http://www.w3.org/1999/xlink" xmlns="http://www.w3.org/2000/svg" width="70" height="48" viewBox="0 0 70 48" fill="none">
<g id="Isolation_Mode" clip-path="url(#clip0_419_32341)">
<path id="Vector" d="M25.899 18.9672L25.7703 16.7807C25.4485 14.0668 23.5319 11.8927 21.0235 11.1079C20.7786 11.031 20.5212 11.1847 20.4318 11.4297L17.8841 17.5656L17.3048 13.9505H17.6785C17.9234 13.9505 18.1165 13.7575 18.1165 13.5268V12.2145C18.1165 11.9839 17.9234 11.7908 17.6785 11.7908H15.5563C15.3114 11.7908 15.1183 11.9839 15.1183 12.2145V13.5268C15.1183 13.7592 15.3114 13.9505 15.5563 13.9505H15.93L15.3507 17.5656L12.803 11.4297C12.7137 11.1847 12.4562 11.031 12.2113 11.1079C9.70292 11.8927 7.79887 14.0668 7.46454 16.7807L7.25894 20.3689H24.6886C24.9979 19.829 25.4091 19.3534 25.8972 18.9672H25.899Z" fill="#114A7E"/>
<path id="Vector_2" d="M21.7071 6.21946C22.2821 3.41836 20.4774 0.681507 17.6763 0.106524C14.8752 -0.468459 12.1384 1.33616 11.5634 4.13727C10.9884 6.93837 12.793 9.67522 15.5941 10.2502C18.3952 10.8252 21.1321 9.02056 21.7071 6.21946Z" fill="#114A7E"/>
<path id="Vector_3" d="M42.5957 10.2944C45.4384 10.2944 47.7429 7.98992 47.7429 5.1472C47.7429 2.30448 45.4384 0 42.5957 0C39.7529 0 37.4485 2.30448 37.4485 5.1472C37.4485 7.98992 39.7529 10.2944 42.5957 10.2944Z" fill="#114A7E"/>
<path id="Vector_4" d="M55.8203 17.8623C55.6505 17.6085 51.5545 11.6353 42.5956 11.6353C37.4073 11.6353 35.1403 14.8838 33.4848 17.2563C33.2452 17.5977 33.0092 17.9392 32.7643 18.2664C31.7166 19.6752 29.3424 20.3725 28.5253 20.5191C27.2649 20.7372 26.4192 21.9333 26.6374 23.1955C26.8555 24.4559 28.0515 25.2944 29.3138 25.0834C29.8018 24.9994 34.1445 24.1716 36.4794 21.0304C36.6833 20.7569 36.8799 20.4744 37.0784 20.1919L37.0247 27.6472L34.0927 35.0292C33.9747 35.3242 33.9139 35.6406 33.9103 35.9589L33.8388 45.4041C33.8281 46.8254 34.9705 47.9857 36.3918 47.9964C37.8293 48.0232 38.9735 46.8647 38.9842 45.4434L39.0521 36.4809L41.9753 29.1204H43.0605L43.2196 45.4559C43.2357 46.8665 44.3853 47.9982 45.7923 47.9982H45.8227C47.244 47.9821 48.3829 46.8165 48.365 45.3969L48.1684 28.1317L48.1523 25.9541C48.3328 26.4029 48.6475 26.8016 49.0927 27.0715C49.4681 27.3004 49.8811 27.4076 50.2905 27.4076C51.0736 27.4076 51.837 27.0107 52.2732 26.292L55.874 20.3528C56.3406 19.584 56.3191 18.6132 55.8185 17.8659L55.8203 17.8623ZM48.315 23.8892C48.2434 24.0054 48.1898 24.1287 48.1415 24.2521L48.0933 17.4297C49.4234 18.0483 50.3996 18.801 51.0361 19.3999L48.315 23.8892Z" fill="#114A7E"/>
<path id="Vector_5" d="M24.0986 23.6371C24.0468 23.3546 24.0343 23.0703 24.0343 22.8004H1.80602C0.803042 22.8004 -0.0068512 23.6102 -0.0068512 24.615C-0.0068512 25.6198 0.803042 26.4154 1.80602 26.4154H4.10876V46.7002C4.10876 47.4207 4.68802 48 5.39422 48H27.8406C28.5611 48 29.1403 47.4207 29.1403 46.7002V27.6883C26.6964 27.792 24.5224 26.081 24.0986 23.6371ZM23.632 30.6472L23.3817 31.3105C23.1403 31.9487 22.7738 32.5173 22.2911 32.9982L20.7536 34.5358L21.2256 36.9261C21.458 36.7777 21.7709 36.8045 21.9729 37.0066L22.5915 37.6269C22.8257 37.8611 22.8239 38.2402 22.5915 38.4744L21.7065 39.3611L22.2536 42.1341C22.3179 42.4577 22.216 42.7902 21.9818 43.0244L21.5992 43.407C21.5063 43.5 21.3757 43.5411 21.247 43.5215C21.1183 43.5 21.0075 43.4195 20.9485 43.3015L19.7667 40.9648C19.6684 41.0185 19.5682 41.0703 19.4663 41.1168C19.1803 41.2491 18.8513 41.1901 18.6296 40.9684C18.4079 40.7467 18.3507 40.4195 18.4812 40.1335C18.6064 39.8617 18.7619 39.5936 18.9407 39.3307L17.9091 37.2926L14.9681 39.9493L15.7136 42.817C15.7637 43.0119 15.7083 43.2229 15.5653 43.3659L15.2542 43.677C15.1755 43.7574 15.0682 43.8004 14.9556 43.8004C14.9377 43.8004 14.9198 43.8004 14.902 43.7968C14.7715 43.7807 14.657 43.7056 14.5891 43.593L13.0945 41.056L12.9639 41.09C12.7548 41.1436 12.5384 41.0846 12.3847 40.9327C12.2309 40.7789 12.1719 40.5644 12.2274 40.3534L12.2613 40.2229L9.72438 38.7282C9.60995 38.6603 9.53665 38.5477 9.51877 38.4172C9.50268 38.2866 9.54559 38.1579 9.63856 38.065L9.94786 37.7539C10.0891 37.6108 10.3001 37.5536 10.4967 37.6055L13.3662 38.351L16.0229 35.41L13.9848 34.3784C13.7238 34.559 13.4538 34.7128 13.1821 34.8379C12.896 34.9702 12.5688 34.9112 12.3471 34.6913C12.1254 34.4714 12.0682 34.1406 12.2005 33.8546C12.247 33.7527 12.2989 33.6526 12.3525 33.5542L10.014 32.3725C9.8978 32.3135 9.81556 32.2026 9.79589 32.0739C9.77444 31.9452 9.81734 31.8129 9.91031 31.7217L10.2911 31.3391C10.5253 31.1049 10.8597 31.0048 11.1815 31.0673L13.9544 31.6144L14.8394 30.7294C15.0647 30.5024 15.4598 30.5024 15.6868 30.7294L16.3072 31.348C16.5092 31.5501 16.5361 31.8629 16.3877 32.0953L18.778 32.5673L20.3156 31.0298C20.7965 30.5471 21.365 30.1806 22.0033 29.9392L22.6666 29.6889C22.9437 29.5852 23.2458 29.6496 23.455 29.8588C23.6642 30.0679 23.7303 30.3701 23.6249 30.6472H23.632Z" fill="#0C8CD7"/>
<path id="Vector_6" d="M53.8555 31.7521V44.3492C53.8555 45.4595 54.7548 46.3588 55.865 46.3588H56.5319V47.292C56.5319 47.6836 56.8483 48 57.2399 48H58.1481C58.5396 48 58.8561 47.6836 58.8561 47.292V46.3588H65.0098V47.292C65.0098 47.6836 65.3263 48 65.7178 48H66.626C67.0176 48 67.334 47.6836 67.334 47.292V46.3588H68.0009C69.1111 46.3588 70.0104 45.4595 70.0104 44.3492V31.7521C67.781 32.739 64.9937 33.3182 61.9347 33.3182C58.8757 33.3182 56.0885 32.739 53.8591 31.7521H53.8555ZM66.1684 42.7437H57.6922C57.2291 42.7437 56.8555 42.3683 56.8555 41.907C56.8555 41.4458 57.2309 41.0703 57.6922 41.0703H66.1684C66.6314 41.0703 67.0051 41.4458 67.0051 41.907C67.0051 42.3683 66.6296 42.7437 66.1684 42.7437ZM67.0051 37.3731C67.0051 37.8361 66.6296 38.2098 66.1684 38.2098H57.6922C57.2291 38.2098 56.8555 37.8343 56.8555 37.3731C56.8555 36.9118 57.2309 36.5364 57.6922 36.5364H66.1684C66.6314 36.5364 67.0051 36.9118 67.0051 37.3731Z" fill="#114A7E"/>
<path id="Vector_7" d="M67.9973 26.9231H65.5444V21.413C65.5444 20.6961 64.9616 20.1132 64.2464 20.1132H59.6177C58.9008 20.1132 58.3179 20.6961 58.3179 21.413V26.9231H55.865C54.7548 26.9231 53.8555 27.8224 53.8555 28.9326V29.8677C55.9741 30.9618 58.8346 31.6448 61.9312 31.6448C65.0277 31.6448 67.8883 30.9601 70.0069 29.8677V28.9326C70.0069 27.8224 69.1076 26.9231 67.9973 26.9231ZM59.9914 26.9231V23.0846H63.8692V26.9231H59.9914Z" fill="#114A7E"/>
</g>
<defs>
<clipPath id="clip0_419_32341">
<rect width="70.0137" height="48" fill="white" transform="translate(-0.0068512)"/>
</clipPath>
</defs>
</svg>