<svg xmlns:xlink="http://www.w3.org/1999/xlink" xmlns="http://www.w3.org/2000/svg" width="52" height="48" viewBox="0 0 52 48" fill="none">
<g id="Isolation_Mode" clip-path="url(#clip0_419_32331)">
<path id="Vector" d="M18.7903 29.9098H16.401C16.0549 29.9098 15.774 29.6288 15.774 29.2827V23.064C15.774 20.3455 13.6843 18.0046 10.9676 17.8763C8.06673 17.7404 5.67194 20.0515 5.67194 22.9208V32.7828C5.67194 34.3532 6.94469 35.6241 8.51331 35.6241H15.6046C15.9507 35.6241 16.2317 35.9051 16.2317 36.2512V45.7894C16.2317 47.0101 17.2216 47.9981 18.4423 47.9981H19.7374C20.958 47.9981 21.9461 47.0101 21.9461 45.7894V33.0656C21.9461 31.3221 20.5338 29.9079 18.7903 29.9079V29.9098Z" fill="#203A72"/>
<path id="Vector_2" d="M10.7332 16.4249C13.8406 16.4249 16.3601 13.9054 16.3601 10.798C16.3601 7.6905 13.8406 5.17104 10.7332 5.17104C7.62573 5.17104 5.10627 7.6905 5.10627 10.798C5.10627 13.9054 7.62573 16.4249 10.7332 16.4249Z" fill="#203A72"/>
<path id="Vector_3" d="M42.6507 30.0679C42.6507 28.7189 41.5547 27.6229 40.2057 27.6229H37.0982C35.751 27.6229 34.6532 28.7189 34.6532 30.0679V31.778H32.6994V48H44.6026V31.778H42.6488V30.0679H42.6507ZM40.5183 31.778H36.7856V30.0679C36.7856 29.8949 36.9252 29.7553 37.0982 29.7553H40.2057C40.3787 29.7553 40.5183 29.8949 40.5183 30.0679V31.778Z" fill="#203A72"/>
<path id="Vector_4" d="M26.237 33.9104V45.8694C26.237 47.0473 27.1916 48.0019 28.3694 48.0019H30.5688V31.7798H28.3694C27.1916 31.7798 26.237 32.7344 26.237 33.9122V33.9104Z" fill="#203A72"/>
<path id="Vector_5" d="M48.9382 31.778H46.7388V48H48.9382C50.116 48 51.0706 47.0454 51.0706 45.8676V33.9085C51.0706 32.7307 50.116 31.7761 48.9382 31.7761V31.778Z" fill="#203A72"/>
<path id="Vector_6" d="M48.2441 0H25.1336C23.5724 0 22.3089 1.26531 22.3089 2.82462V20.3157C22.3089 21.8769 23.5742 23.1403 25.1336 23.1403H48.2441C49.8053 23.1403 51.0687 21.875 51.0687 20.3157V2.82462C51.0687 1.26345 49.8034 0 48.2441 0ZM46.3741 12.3033C45.3079 13.1146 43.9942 13.5351 42.6544 13.4905L38.4454 13.3118L36.2404 18.107C35.9334 18.7731 35.3417 19.2495 34.6476 19.4188C34.3741 19.4858 34.121 19.2439 34.1545 18.9648L34.869 13.1611L29.2998 12.9267L28.576 14.7037C28.3731 15.2005 27.8912 15.5243 27.3553 15.5243H27.0241C26.7785 15.5243 26.5961 15.2973 26.6482 15.0572L27.2809 12.2233C27.3776 11.7916 27.3776 11.345 27.2809 10.9152L26.6482 8.08125C26.5943 7.84122 26.7766 7.6142 27.0241 7.6142H27.3553C27.8912 7.6142 28.375 7.93984 28.576 8.4348L29.2998 10.2118L34.869 9.97736L34.1545 4.17367C34.121 3.89456 34.3741 3.65266 34.6476 3.71965C35.3417 3.88711 35.9334 4.36347 36.2404 5.03148L38.4454 9.82664L42.6544 9.64987C43.9942 9.60707 45.3079 10.0257 46.3741 10.837C46.8597 11.2055 46.8597 11.9349 46.3741 12.3033Z" fill="#14A0DE"/>
<path id="Vector_7" d="M12.233 38.0524H8.23606C5.54541 38.0524 3.3553 35.8623 3.3553 33.1717V19.5081C3.3553 18.6541 2.6631 17.9637 1.81087 17.9637C0.958649 17.9637 0.266449 18.6559 0.266449 19.5081V33.1717C0.266449 37.5668 3.84282 41.1431 8.23792 41.1431H10.6885V46.4537C10.6885 47.3078 11.3807 48 12.233 48C13.0852 48 13.7774 47.3078 13.7774 46.4537V39.5968C13.7774 38.7428 13.0852 38.0524 12.233 38.0524Z" fill="#203A72"/>
</g>
<defs>
<clipPath id="clip0_419_32331">
<rect width="50.8042" height="48" fill="white" transform="translate(0.264587)"/>
</clipPath>
</defs>
</svg>