<svg xmlns:xlink="http://www.w3.org/1999/xlink" xmlns="http://www.w3.org/2000/svg" width="61" height="48" viewBox="0 0 61 48" fill="none">
<g id="Isolation_Mode" clip-path="url(#clip0_419_32351)">
<path id="Vector" d="M59.1367 13.3443C57.267 11.699 54.6587 11.2259 52.3271 12.1066L46.0149 14.5055C45.6447 14.6457 45.2221 14.6064 44.8856 14.397L36.4381 9.18043C36.2118 9.0402 35.9389 9.01028 35.6883 9.09255L33.4708 9.82175C33.1735 9.92085 32.9529 10.1602 32.88 10.4649C32.807 10.7678 32.8949 11.082 33.1156 11.3045L38.9678 17.1829L29.9482 20.612C29.5649 20.756 29.1311 20.7111 28.789 20.4849L25.818 18.5329C25.5861 18.3814 25.3038 18.344 25.042 18.4319L23.8005 18.847C23.5294 18.9367 23.3237 19.1462 23.234 19.4173C23.1461 19.6884 23.1891 19.9782 23.3536 20.2119L27.0688 25.4565C27.6372 26.2568 28.5384 26.7074 29.4808 26.7074C29.7818 26.7074 30.0847 26.6625 30.3839 26.5672L58.4113 17.6447C59.1424 17.4129 59.7145 16.8595 59.9819 16.1246C60.3166 15.201 59.9763 14.0848 59.1349 13.3443H59.1367Z" fill="#0C8CD7"/>
<path id="Vector_2" d="M53.3106 30.4319H17.7013V15.1898H20.4349C21.1716 15.1898 21.8279 14.7205 22.0653 14.0231L24.9784 5.50826C25.3617 4.39015 24.5296 3.22717 23.348 3.22717H14.3956V1.57993C14.3956 0.708632 13.6889 0 12.8157 0C11.9425 0 11.2358 0.706762 11.2358 1.57993V3.22717H2.28346C1.10179 3.22717 0.269751 4.39015 0.651178 5.50826L3.56423 14.0231C3.80169 14.7205 4.45797 15.1898 5.19465 15.1898H7.92821V30.4319H4.09898C3.05193 30.4319 2.20306 31.2808 2.20306 32.3278V46.106C2.20306 47.153 3.05193 48.0019 4.09898 48.0019H53.3087C54.3558 48.0019 55.2027 47.153 55.2027 46.106V32.3278C55.2027 31.2808 54.3539 30.4319 53.3087 30.4319H53.3106ZM17.5312 6.38517H21.3417L20.074 10.091H17.5312V6.38517ZM11.2582 6.38517H14.3732V10.091H11.2582V6.38517ZM8.10023 10.091H5.55738L4.28969 6.38517H8.10023V10.091ZM18.6269 40.6893C18.6269 41.2988 18.1314 41.7943 17.5219 41.7943H11.5667C10.9553 41.7943 10.4617 41.2988 10.4617 40.6893V37.7426C10.4617 37.1312 10.9572 36.6376 11.5667 36.6376H17.5219C18.1314 36.6376 18.6269 37.1331 18.6269 37.7426V40.6893ZM32.7902 40.6893C32.7902 41.2988 32.2947 41.7943 31.6851 41.7943H25.7281C25.1167 41.7943 24.6231 41.2988 24.6231 40.6893V37.7426C24.6231 37.1312 25.1186 36.6376 25.7281 36.6376H31.6851C32.2947 36.6376 32.7902 37.1331 32.7902 37.7426V40.6893ZM46.9534 40.6893C46.9534 41.2988 46.458 41.7943 45.8484 41.7943H39.8914C39.28 41.7943 38.7864 41.2988 38.7864 40.6893V37.7426C38.7864 37.1312 39.2819 36.6376 39.8914 36.6376H45.8484C46.458 36.6376 46.9534 37.1331 46.9534 37.7426V40.6893Z" fill="#114A7E"/>
</g>
<defs>
<clipPath id="clip0_419_32351">
<rect width="59.5513" height="48" fill="white" transform="translate(0.557739)"/>
</clipPath>
</defs>
</svg>